<svg xmlns="http://www.w3.org/2000/svg" version="1.1" xmlns:xlink="http://www.w3.org/1999/xlink" xmlns:svgjs="http://svgjs.dev/svgjs" viewBox="0 0 1422 800"><defs><linearGradient x1="50%" y1="0%" x2="50%" y2="100%" id="oooscillate-grad"><stop stop-color="hsl(180, 69%, 40%)" stop-opacity="1" offset="0%"></stop><stop stop-color="hsl(180, 69%, 60%)" stop-opacity="1" offset="100%"></stop></linearGradient></defs><g stroke-width="3.5" stroke="url(#oooscillate-grad)" fill="none" stroke-linecap="round"><path d="M 0 899 Q 355.5 -100 711 400 Q 1066.5 900 1422 899" stroke-dasharray="4 0" opacity="0.96"></path><path d="M 0 870 Q 355.5 -100 711 400 Q 1066.5 900 1422 870" stroke-dasharray="4 0" opacity="0.35"></path><path d="M 0 841 Q 355.5 -100 711 400 Q 1066.5 900 1422 841" stroke-dasharray="3 5" opacity="0.78"></path><path d="M 0 812 Q 355.5 -100 711 400 Q 1066.5 900 1422 812" stroke-dasharray="1 0" opacity="0.76"></path><path d="M 0 783 Q 355.5 -100 711 400 Q 1066.5 900 1422 783" stroke-dasharray="3 0" opacity="0.91"></path><path d="M 0 754 Q 355.5 -100 711 400 Q 1066.5 900 1422 754" stroke-dasharray="3 0" opacity="0.36"></path><path d="M 0 725 Q 355.5 -100 711 400 Q 1066.5 900 1422 725" stroke-dasharray="1 2" opacity="0.80"></path><path d="M 0 696 Q 355.5 -100 711 400 Q 1066.5 900 1422 696" stroke-dasharray="4 5" opacity="0.43"></path><path d="M 0 667 Q 355.5 -100 711 400 Q 1066.5 900 1422 667" stroke-dasharray="4 4" opacity="0.66"></path><path d="M 0 638 Q 355.5 -100 711 400 Q 1066.5 900 1422 638" stroke-dasharray="1 3" opacity="0.58"></path><path d="M 0 609 Q 355.5 -100 711 400 Q 1066.5 900 1422 609" stroke-dasharray="0 1" opacity="0.35"></path><path d="M 0 580 Q 355.5 -100 711 400 Q 1066.5 900 1422 580" stroke-dasharray="4 5" opacity="0.11"></path><path d="M 0 551 Q 355.5 -100 711 400 Q 1066.5 900 1422 551" stroke-dasharray="4 2" opacity="0.31"></path><path d="M 0 522 Q 355.5 -100 711 400 Q 1066.5 900 1422 522" stroke-dasharray="3 4" opacity="0.25"></path><path d="M 0 493 Q 355.5 -100 711 400 Q 1066.5 900 1422 493" stroke-dasharray="0 2" opacity="0.66"></path><path d="M 0 464 Q 355.5 -100 711 400 Q 1066.5 900 1422 464" stroke-dasharray="1 4" opacity="0.08"></path><path d="M 0 435 Q 355.5 -100 711 400 Q 1066.5 900 1422 435" stroke-dasharray="2 2" opacity="0.91"></path><path d="M 0 406 Q 355.5 -100 711 400 Q 1066.5 900 1422 406" stroke-dasharray="4 4" opacity="0.38"></path><path d="M 0 377 Q 355.5 -100 711 400 Q 1066.5 900 1422 377" stroke-dasharray="3 5" opacity="0.64"></path><path d="M 0 348 Q 355.5 -100 711 400 Q 1066.5 900 1422 348" stroke-dasharray="5 1" opacity="0.43"></path><path d="M 0 319 Q 355.5 -100 711 400 Q 1066.5 900 1422 319" stroke-dasharray="0 5" opacity="0.16"></path><path d="M 0 290 Q 355.5 -100 711 400 Q 1066.5 900 1422 290" stroke-dasharray="4 4" opacity="0.66"></path><path d="M 0 261 Q 355.5 -100 711 400 Q 1066.5 900 1422 261" stroke-dasharray="5 3" opacity="0.60"></path><path d="M 0 232 Q 355.5 -100 711 400 Q 1066.5 900 1422 232" stroke-dasharray="0 4" opacity="0.80"></path><path d="M 0 203 Q 355.5 -100 711 400 Q 1066.5 900 1422 203" opacity="0.37"></path><path d="M 0 174 Q 355.5 -100 711 400 Q 1066.5 900 1422 174" stroke-dasharray="0 1" opacity="0.14"></path><path d="M 0 145 Q 355.5 -100 711 400 Q 1066.5 900 1422 145" stroke-dasharray="2 2" opacity="0.37"></path><path d="M 0 116 Q 355.5 -100 711 400 Q 1066.5 900 1422 116" stroke-dasharray="5 4" opacity="0.59"></path><path d="M 0 87 Q 355.5 -100 711 400 Q 1066.5 900 1422 87" stroke-dasharray="5 3" opacity="0.63"></path><path d="M 0 58 Q 355.5 -100 711 400 Q 1066.5 900 1422 58" stroke-dasharray="4 1" opacity="0.86"></path></g></svg>